<?xml version="1.0" encoding="utf-8" standalone="no"?>
<!DOCTYPE svg PUBLIC "-//W3C//DTD SVG 1.1//EN"
  "http://www.w3.org/Graphics/SVG/1.1/DTD/svg11.dtd">
<!-- Created with matplotlib (http://matplotlib.org/) -->
<svg height="288pt" version="1.1" viewBox="0 0 288 288" width="288pt" xmlns="http://www.w3.org/2000/svg" xmlns:xlink="http://www.w3.org/1999/xlink">
 <defs>
  <style type="text/css">
*{stroke-linecap:butt;stroke-linejoin:round;stroke-miterlimit:100000;}
  </style>
 </defs>
 <g id="figure_1">
  <g id="patch_1">
   <path d="M 0 288 
L 288 288 
L 288 0 
L 0 0 
z
" style="fill:#ffffff;"/>
  </g>
  <g id="axes_1">
   <g id="patch_2">
    <path d="M 36 259.2 
L 259.2 259.2 
L 259.2 28.8 
L 36 28.8 
z
" style="fill:#ffffff;"/>
   </g>
   <g id="PathCollection_1">
    <path clip-path="url(#pd22c985537)" d="M 191.98183 175.847882 
C 194.647309 175.847882 197.203976 174.788875 199.088755 172.904097 
C 200.973533 171.019318 202.032539 168.462651 202.032539 165.797172 
C 202.032539 163.131693 200.973533 160.575026 199.088755 158.690247 
C 197.203976 156.805468 194.647309 155.746462 191.98183 155.746462 
C 189.31635 155.746462 186.759683 156.805468 184.874905 158.690247 
C 182.990126 160.575026 181.93112 163.131693 181.93112 165.797172 
C 181.93112 168.462651 182.990126 171.019318 184.874905 172.904097 
C 186.759683 174.788875 189.31635 175.847882 191.98183 175.847882 
z
" style="fill:#90ff66;fill-opacity:0.5;stroke:#000000;stroke-opacity:0.5;"/>
    <path clip-path="url(#pd22c985537)" d="M 170.660298 225.130987 
C 173.672726 225.130987 176.562179 223.934136 178.692287 221.804028 
C 180.822396 219.673919 182.019246 216.784467 182.019246 213.772039 
C 182.019246 210.75961 180.822396 207.870158 178.692287 205.740049 
C 176.562179 203.609941 173.672726 202.413091 170.660298 202.413091 
C 167.64787 202.413091 164.758417 203.609941 162.628309 205.740049 
C 160.498201 207.870158 159.30135 210.75961 159.30135 213.772039 
C 159.30135 216.784467 160.498201 219.673919 162.628309 221.804028 
C 164.758417 223.934136 167.64787 225.130987 170.660298 225.130987 
z
" style="fill:#0000e8;fill-opacity:0.5;stroke:#000000;stroke-opacity:0.5;"/>
    <path clip-path="url(#pd22c985537)" d="M 226.42201 177.295008 
C 228.568848 177.295008 230.628046 176.44206 232.146089 174.924016 
C 233.664133 173.405973 234.517081 171.346775 234.517081 169.199937 
C 234.517081 167.053099 233.664133 164.993901 232.146089 163.475857 
C 230.628046 161.957814 228.568848 161.104866 226.42201 161.104866 
C 224.275172 161.104866 222.215974 161.957814 220.69793 163.475857 
C 219.179887 164.993901 218.326939 167.053099 218.326939 169.199937 
C 218.326939 171.346775 219.179887 173.405973 220.69793 174.924016 
C 222.215974 176.44206 224.275172 177.295008 226.42201 177.295008 
z
" style="fill:#d7ff1f;fill-opacity:0.5;stroke:#000000;stroke-opacity:0.5;"/>
    <path clip-path="url(#pd22c985537)" d="M 129.043384 86.655541 
C 132.086958 86.655541 135.006284 85.446317 137.158416 83.294185 
C 139.310547 81.142054 140.519772 78.222727 140.519772 75.179154 
C 140.519772 72.13558 139.310547 69.216254 137.158416 67.064122 
C 135.006284 64.911991 132.086958 63.702766 129.043384 63.702766 
C 125.99981 63.702766 123.080484 64.911991 120.928352 67.064122 
C 118.776221 69.216254 117.566996 72.13558 117.566996 75.179154 
C 117.566996 78.222727 118.776221 81.142054 120.928352 83.294185 
C 123.080484 85.446317 125.99981 86.655541 129.043384 86.655541 
z
" style="fill:#ffd300;fill-opacity:0.5;stroke:#000000;stroke-opacity:0.5;"/>
    <path clip-path="url(#pd22c985537)" d="M 173.826948 191.048917 
C 174.063488 191.048917 174.290372 190.954938 174.457631 190.787679 
C 174.62489 190.62042 174.718868 190.393537 174.718868 190.156997 
C 174.718868 189.920457 174.62489 189.693573 174.457631 189.526314 
C 174.290372 189.359055 174.063488 189.265077 173.826948 189.265077 
C 173.590408 189.265077 173.363525 189.359055 173.196266 189.526314 
C 173.029007 189.693573 172.935028 189.920457 172.935028 190.156997 
C 172.935028 190.393537 173.029007 190.62042 173.196266 190.787679 
C 173.363525 190.954938 173.590408 191.048917 173.826948 191.048917 
z
" style="fill:#ff8900;fill-opacity:0.5;stroke:#000000;stroke-opacity:0.5;"/>
    <path clip-path="url(#pd22c985537)" d="M 155.874446 101.171629 
C 156.010609 101.171629 156.141214 101.117531 156.237495 101.021249 
C 156.333777 100.924967 156.387876 100.794363 156.387876 100.6582 
C 156.387876 100.522036 156.333777 100.391432 156.237495 100.29515 
C 156.141214 100.198868 156.010609 100.14477 155.874446 100.14477 
C 155.738282 100.14477 155.607678 100.198868 155.511396 100.29515 
C 155.415114 100.391432 155.361016 100.522036 155.361016 100.6582 
C 155.361016 100.794363 155.415114 100.924967 155.511396 101.021249 
C 155.607678 101.117531 155.738282 101.171629 155.874446 101.171629 
z
" style="fill:#0034ff;fill-opacity:0.5;stroke:#000000;stroke-opacity:0.5;"/>
    <path clip-path="url(#pd22c985537)" d="M 129.610373 77.803507 
C 130.125207 77.803507 130.619024 77.598961 130.983067 77.234918 
C 131.34711 76.870875 131.551656 76.377058 131.551656 75.862223 
C 131.551656 75.347389 131.34711 74.853572 130.983067 74.489529 
C 130.619024 74.125486 130.125207 73.92094 129.610373 73.92094 
C 129.095538 73.92094 128.601721 74.125486 128.237678 74.489529 
C 127.873635 74.853572 127.669089 75.347389 127.669089 75.862223 
C 127.669089 76.377058 127.873635 76.870875 128.237678 77.234918 
C 128.601721 77.598961 129.095538 77.803507 129.610373 77.803507 
z
" style="fill:#b4ff43;fill-opacity:0.5;stroke:#000000;stroke-opacity:0.5;"/>
    <path clip-path="url(#pd22c985537)" d="M 164.792158 152.769851 
C 167.162473 152.769851 169.436025 151.828115 171.112091 150.152049 
C 172.788156 148.475983 173.729892 146.202431 173.729892 143.832116 
C 173.729892 141.461801 172.788156 139.188249 171.112091 137.512183 
C 169.436025 135.836117 167.162473 134.894381 164.792158 134.894381 
C 162.421843 134.894381 160.14829 135.836117 158.472225 137.512183 
C 156.796159 139.188249 155.854423 141.461801 155.854423 143.832116 
C 155.854423 146.202431 156.796159 148.475983 158.472225 150.152049 
C 160.14829 151.828115 162.421843 152.769851 164.792158 152.769851 
z
" style="fill:#00e0fb;fill-opacity:0.5;stroke:#000000;stroke-opacity:0.5;"/>
    <path clip-path="url(#pd22c985537)" d="M 162.78014 236.137018 
C 165.690947 236.137018 168.482927 234.980542 170.541179 232.92229 
C 172.59943 230.864038 173.755907 228.072058 173.755907 225.161251 
C 173.755907 222.250443 172.59943 219.458463 170.541179 217.400211 
C 168.482927 215.34196 165.690947 214.185484 162.78014 214.185484 
C 159.869332 214.185484 157.077352 215.34196 155.0191 217.400211 
C 152.960849 219.458463 151.804373 222.250443 151.804373 225.161251 
C 151.804373 228.072058 152.960849 230.864038 155.0191 232.92229 
C 157.077352 234.980542 159.869332 236.137018 162.78014 236.137018 
z
" style="fill:#800000;fill-opacity:0.5;stroke:#000000;stroke-opacity:0.5;"/>
    <path clip-path="url(#pd22c985537)" d="M 194.252742 116.958412 
C 196.473678 116.958412 198.60395 116.076024 200.174389 114.505585 
C 201.744828 112.935146 202.627216 110.804874 202.627216 108.583938 
C 202.627216 106.363001 201.744828 104.232729 200.174389 102.66229 
C 198.60395 101.091851 196.473678 100.209464 194.252742 100.209464 
C 192.031805 100.209464 189.901534 101.091851 188.331094 102.66229 
C 186.760655 104.232729 185.878268 106.363001 185.878268 108.583938 
C 185.878268 110.804874 186.760655 112.935146 188.331094 114.505585 
C 189.901534 116.076024 192.031805 116.958412 194.252742 116.958412 
z
" style="fill:#00b4ff;fill-opacity:0.5;stroke:#000000;stroke-opacity:0.5;"/>
    <path clip-path="url(#pd22c985537)" d="M 143.62675 158.486424 
C 145.110767 158.486424 146.534203 157.896818 147.583561 156.847459 
C 148.632919 155.798101 149.222526 154.374666 149.222526 152.890649 
C 149.222526 151.406632 148.632919 149.983197 147.583561 148.933838 
C 146.534203 147.88448 145.110767 147.294874 143.62675 147.294874 
C 142.142734 147.294874 140.719298 147.88448 139.66994 148.933838 
C 138.620581 149.983197 138.030975 151.406632 138.030975 152.890649 
C 138.030975 154.374666 138.620581 155.798101 139.66994 156.847459 
C 140.719298 157.896818 142.142734 158.486424 143.62675 158.486424 
z
" style="fill:#02e8f4;fill-opacity:0.5;stroke:#000000;stroke-opacity:0.5;"/>
    <path clip-path="url(#pd22c985537)" d="M 191.55901 87.414409 
C 194.971714 87.414409 198.245101 86.058527 200.658247 83.645382 
C 203.071393 81.232236 204.427275 77.958848 204.427275 74.546145 
C 204.427275 71.133441 203.071393 67.860054 200.658247 65.446908 
C 198.245101 63.033762 194.971714 61.67788 191.55901 61.67788 
C 188.146307 61.67788 184.872919 63.033762 182.459773 65.446908 
C 180.046627 67.860054 178.690746 71.133441 178.690746 74.546145 
C 178.690746 77.958848 180.046627 81.232236 182.459773 83.645382 
C 184.872919 86.058527 188.146307 87.414409 191.55901 87.414409 
z
" style="fill:#0000ff;fill-opacity:0.5;stroke:#000000;stroke-opacity:0.5;"/>
    <path clip-path="url(#pd22c985537)" d="M 142.185542 160.832731 
C 143.01751 160.832731 143.815514 160.502187 144.403804 159.913897 
C 144.992093 159.325607 145.322637 158.527603 145.322637 157.695636 
C 145.322637 156.863668 144.992093 156.065664 144.403804 155.477375 
C 143.815514 154.889085 143.01751 154.558541 142.185542 154.558541 
C 141.353575 154.558541 140.555571 154.889085 139.967281 155.477375 
C 139.378992 156.065664 139.048448 156.863668 139.048448 157.695636 
C 139.048448 158.527603 139.378992 159.325607 139.967281 159.913897 
C 140.555571 160.502187 141.353575 160.832731 142.185542 160.832731 
z
" style="fill:#9dff5a;fill-opacity:0.5;stroke:#000000;stroke-opacity:0.5;"/>
    <path clip-path="url(#pd22c985537)" d="M 188.997142 92.105699 
C 189.261192 92.105699 189.514463 92.00079 189.701175 91.814078 
C 189.887887 91.627367 189.992795 91.374095 189.992795 91.110045 
C 189.992795 90.845995 189.887887 90.592724 189.701175 90.406012 
C 189.514463 90.2193 189.261192 90.114392 188.997142 90.114392 
C 188.733091 90.114392 188.47982 90.2193 188.293108 90.406012 
C 188.106397 90.592724 188.001488 90.845995 188.001488 91.110045 
C 188.001488 91.374095 188.106397 91.627367 188.293108 91.814078 
C 188.47982 92.00079 188.733091 92.105699 188.997142 92.105699 
z
" style="fill:#0050ff;fill-opacity:0.5;stroke:#000000;stroke-opacity:0.5;"/>
    <path clip-path="url(#pd22c985537)" d="M 81.169809 219.811568 
C 84.372812 219.811568 87.44506 218.539001 89.709926 216.274136 
C 91.974792 214.00927 93.247358 210.937022 93.247358 207.734019 
C 93.247358 204.531015 91.974792 201.458767 89.709926 199.193902 
C 87.44506 196.929036 84.372812 195.656469 81.169809 195.656469 
C 77.966805 195.656469 74.894557 196.929036 72.629692 199.193902 
C 70.364826 201.458767 69.092259 204.531015 69.092259 207.734019 
C 69.092259 210.937022 70.364826 214.00927 72.629692 216.274136 
C 74.894557 218.539001 77.966805 219.811568 81.169809 219.811568 
z
" style="fill:#0000e8;fill-opacity:0.5;stroke:#000000;stroke-opacity:0.5;"/>
    <path clip-path="url(#pd22c985537)" d="M 140.882284 87.758279 
C 144.111897 87.758279 147.209668 86.47514 149.493349 84.191459 
C 151.77703 81.907778 153.060169 78.810007 153.060169 75.580395 
C 153.060169 72.350782 151.77703 69.253011 149.493349 66.96933 
C 147.209668 64.685649 144.111897 63.402511 140.882284 63.402511 
C 137.652672 63.402511 134.554901 64.685649 132.27122 66.96933 
C 129.987539 69.253011 128.7044 72.350782 128.7044 75.580395 
C 128.7044 78.810007 129.987539 81.907778 132.27122 84.191459 
C 134.554901 86.47514 137.652672 87.758279 140.882284 87.758279 
z
" style="fill:#a40000;fill-opacity:0.5;stroke:#000000;stroke-opacity:0.5;"/>
    <path clip-path="url(#pd22c985537)" d="M 96.975941 191.180766 
C 99.593707 191.180766 102.104607 190.140717 103.955647 188.289678 
C 105.806686 186.438638 106.846736 183.927737 106.846736 181.309972 
C 106.846736 178.692207 105.806686 176.181306 103.955647 174.330267 
C 102.104607 172.479227 99.593707 171.439178 96.975941 171.439178 
C 94.358176 171.439178 91.847275 172.479227 89.996236 174.330267 
C 88.145196 176.181306 87.105147 178.692207 87.105147 181.309972 
C 87.105147 183.927737 88.145196 186.438638 89.996236 188.289678 
C 91.847275 190.140717 94.358176 191.180766 96.975941 191.180766 
z
" style="fill:#0024ff;fill-opacity:0.5;stroke:#000000;stroke-opacity:0.5;"/>
    <path clip-path="url(#pd22c985537)" d="M 160.584402 160.585796 
C 161.702644 160.585796 162.775237 160.141514 163.565953 159.350797 
C 164.35667 158.56008 164.800953 157.487488 164.800953 156.369245 
C 164.800953 155.251003 164.35667 154.17841 163.565953 153.387694 
C 162.775237 152.596977 161.702644 152.152694 160.584402 152.152694 
C 159.466159 152.152694 158.393567 152.596977 157.60285 153.387694 
C 156.812133 154.17841 156.367851 155.251003 156.367851 156.369245 
C 156.367851 157.487488 156.812133 158.56008 157.60285 159.350797 
C 158.393567 160.141514 159.466159 160.585796 160.584402 160.585796 
z
" style="fill:#aaff4d;fill-opacity:0.5;stroke:#000000;stroke-opacity:0.5;"/>
    <path clip-path="url(#pd22c985537)" d="M 128.510237 115.400243 
C 131.884694 115.400243 135.121395 114.059557 137.507497 111.673456 
C 139.893598 109.287355 141.234284 106.050653 141.234284 102.676197 
C 141.234284 99.30174 139.893598 96.065038 137.507497 93.678937 
C 135.121395 91.292836 131.884694 89.95215 128.510237 89.95215 
C 125.135781 89.95215 121.899079 91.292836 119.512978 93.678937 
C 117.126876 96.065038 115.786191 99.30174 115.786191 102.676197 
C 115.786191 106.050653 117.126876 109.287355 119.512978 111.673456 
C 121.899079 114.059557 125.135781 115.400243 128.510237 115.400243 
z
" style="fill:#bf0000;fill-opacity:0.5;stroke:#000000;stroke-opacity:0.5;"/>
    <path clip-path="url(#pd22c985537)" d="M 181.126638 213.17092 
C 181.762552 213.17092 182.372505 212.918269 182.822164 212.46861 
C 183.271822 212.018952 183.524473 211.408998 183.524473 210.773085 
C 183.524473 210.137172 183.271822 209.527218 182.822164 209.07756 
C 182.372505 208.627901 181.762552 208.37525 181.126638 208.37525 
C 180.490725 208.37525 179.880772 208.627901 179.431113 209.07756 
C 178.981454 209.527218 178.728803 210.137172 178.728803 210.773085 
C 178.728803 211.408998 178.981454 212.018952 179.431113 212.46861 
C 179.880772 212.918269 180.490725 213.17092 181.126638 213.17092 
z
" style="fill:#0068ff;fill-opacity:0.5;stroke:#000000;stroke-opacity:0.5;"/>
    <path clip-path="url(#pd22c985537)" d="M 190.567266 102.714194 
C 191.677425 102.714194 192.742265 102.273123 193.527266 101.488122 
C 194.312267 100.703121 194.753338 99.638281 194.753338 98.528122 
C 194.753338 97.417963 194.312267 96.353123 193.527266 95.568122 
C 192.742265 94.783121 191.677425 94.34205 190.567266 94.34205 
C 189.457107 94.34205 188.392267 94.783121 187.607266 95.568122 
C 186.822265 96.353123 186.381194 97.417963 186.381194 98.528122 
C 186.381194 99.638281 186.822265 100.703121 187.607266 101.488122 
C 188.392267 102.273123 189.457107 102.714194 190.567266 102.714194 
z
" style="fill:#a7ff50;fill-opacity:0.5;stroke:#000000;stroke-opacity:0.5;"/>
    <path clip-path="url(#pd22c985537)" d="M 128.639825 206.75324 
C 129.181777 206.75324 129.701604 206.537921 130.084822 206.154703 
C 130.468039 205.771486 130.683359 205.251658 130.683359 204.709707 
C 130.683359 204.167755 130.468039 203.647927 130.084822 203.26471 
C 129.701604 202.881492 129.181777 202.666173 128.639825 202.666173 
C 128.097874 202.666173 127.578046 202.881492 127.194829 203.26471 
C 126.811611 203.647927 126.596291 204.167755 126.596291 204.709707 
C 126.596291 205.251658 126.811611 205.771486 127.194829 206.154703 
C 127.578046 206.537921 128.097874 206.75324 128.639825 206.75324 
z
" style="fill:#ff1e00;fill-opacity:0.5;stroke:#000000;stroke-opacity:0.5;"/>
    <path clip-path="url(#pd22c985537)" d="M 86.700283 120.389937 
C 89.384378 120.389937 91.958901 119.323534 93.856843 117.425592 
C 95.754785 115.52765 96.821188 112.953127 96.821188 110.269032 
C 96.821188 107.584936 95.754785 105.010413 93.856843 103.112471 
C 91.958901 101.214529 89.384378 100.148127 86.700283 100.148127 
C 84.016187 100.148127 81.441664 101.214529 79.543722 103.112471 
C 77.64578 105.010413 76.579378 107.584936 76.579378 110.269032 
C 76.579378 112.953127 77.64578 115.52765 79.543722 117.425592 
C 81.441664 119.323534 84.016187 120.389937 86.700283 120.389937 
z
" style="fill:#0000ff;fill-opacity:0.5;stroke:#000000;stroke-opacity:0.5;"/>
    <path clip-path="url(#pd22c985537)" d="M 158.316459 168.66934 
C 160.494537 168.66934 162.5837 167.803981 164.123834 166.263847 
C 165.663968 164.723713 166.529328 162.63455 166.529328 160.456471 
C 166.529328 158.278393 165.663968 156.18923 164.123834 154.649096 
C 162.5837 153.108962 160.494537 152.243602 158.316459 152.243602 
C 156.13838 152.243602 154.049217 153.108962 152.509083 154.649096 
C 150.968949 156.18923 150.10359 158.278393 150.10359 160.456471 
C 150.10359 162.63455 150.968949 164.723713 152.509083 166.263847 
C 154.049217 167.803981 156.13838 168.66934 158.316459 168.66934 
z
" style="fill:#c4ff33;fill-opacity:0.5;stroke:#000000;stroke-opacity:0.5;"/>
    <path clip-path="url(#pd22c985537)" d="M 106.082713 73.157459 
C 108.323933 73.157459 110.47366 72.267013 112.058441 70.682231 
C 113.643223 69.09745 114.533669 66.947723 114.533669 64.706503 
C 114.533669 62.465283 113.643223 60.315556 112.058441 58.730774 
C 110.47366 57.145992 108.323933 56.255546 106.082713 56.255546 
C 103.841493 56.255546 101.691766 57.145992 100.106984 58.730774 
C 98.522202 60.315556 97.631756 62.465283 97.631756 64.706503 
C 97.631756 66.947723 98.522202 69.09745 100.106984 70.682231 
C 101.691766 72.267013 103.841493 73.157459 106.082713 73.157459 
z
" style="fill:#bb0000;fill-opacity:0.5;stroke:#000000;stroke-opacity:0.5;"/>
    <path clip-path="url(#pd22c985537)" d="M 210.404685 223.209214 
C 211.598493 223.209214 212.743566 222.734909 213.587716 221.89076 
C 214.431865 221.04661 214.90617 219.901537 214.90617 218.707729 
C 214.90617 217.513922 214.431865 216.368849 213.587716 215.524699 
C 212.743566 214.68055 211.598493 214.206245 210.404685 214.206245 
C 209.210878 214.206245 208.065805 214.68055 207.221655 215.524699 
C 206.377506 216.368849 205.903201 217.513922 205.903201 218.707729 
C 205.903201 219.901537 206.377506 221.04661 207.221655 221.89076 
C 208.065805 222.734909 209.210878 223.209214 210.404685 223.209214 
z
" style="fill:#ff5d00;fill-opacity:0.5;stroke:#000000;stroke-opacity:0.5;"/>
    <path clip-path="url(#pd22c985537)" d="M 85.23625 71.144718 
C 87.226645 71.144718 89.135786 70.353926 90.543207 68.946505 
C 91.950628 67.539084 92.74142 65.629943 92.74142 63.639549 
C 92.74142 61.649154 91.950628 59.740013 90.543207 58.332592 
C 89.135786 56.925171 87.226645 56.134379 85.23625 56.134379 
C 83.245856 56.134379 81.336715 56.925171 79.929294 58.332592 
C 78.521873 59.740013 77.731081 61.649154 77.731081 63.639549 
C 77.731081 65.629943 78.521873 67.539084 79.929294 68.946505 
C 81.336715 70.353926 83.245856 71.144718 85.23625 71.144718 
z
" style="fill:#f4f802;fill-opacity:0.5;stroke:#000000;stroke-opacity:0.5;"/>
    <path clip-path="url(#pd22c985537)" d="M 95.115482 107.794264 
C 98.196378 107.794264 101.151503 106.570211 103.330025 104.391689 
C 105.508547 102.213167 106.7326 99.258042 106.7326 96.177146 
C 106.7326 93.09625 105.508547 90.141125 103.330025 87.962603 
C 101.151503 85.78408 98.196378 84.560027 95.115482 84.560027 
C 92.034586 84.560027 89.079461 85.78408 86.900939 87.962603 
C 84.722416 90.141125 83.498364 93.09625 83.498364 96.177146 
C 83.498364 99.258042 84.722416 102.213167 86.900939 104.391689 
C 89.079461 106.570211 92.034586 107.794264 95.115482 107.794264 
z
" style="fill:#9f0000;fill-opacity:0.5;stroke:#000000;stroke-opacity:0.5;"/>
    <path clip-path="url(#pd22c985537)" d="M 208.988817 185.401462 
C 209.611812 185.401462 210.209375 185.153944 210.649898 184.71342 
C 211.090422 184.272896 211.337941 183.675334 211.337941 183.052339 
C 211.337941 182.429345 211.090422 181.831782 210.649898 181.391258 
C 210.209375 180.950735 209.611812 180.703216 208.988817 180.703216 
C 208.365823 180.703216 207.76826 180.950735 207.327737 181.391258 
C 206.887213 181.831782 206.639694 182.429345 206.639694 183.052339 
C 206.639694 183.675334 206.887213 184.272896 207.327737 184.71342 
C 207.76826 185.153944 208.365823 185.401462 208.988817 185.401462 
z
" style="fill:#06ecf1;fill-opacity:0.5;stroke:#000000;stroke-opacity:0.5;"/>
    <path clip-path="url(#pd22c985537)" d="M 204.666782 166.434191 
C 205.935922 166.434191 207.153251 165.929956 208.050668 165.032539 
C 208.948085 164.135122 209.45232 162.917793 209.45232 161.648653 
C 209.45232 160.379514 208.948085 159.162184 208.050668 158.264767 
C 207.153251 157.36735 205.935922 156.863116 204.666782 156.863116 
C 203.397643 156.863116 202.180314 157.36735 201.282897 158.264767 
C 200.38548 159.162184 199.881245 160.379514 199.881245 161.648653 
C 199.881245 162.917793 200.38548 164.135122 201.282897 165.032539 
C 202.180314 165.929956 203.397643 166.434191 204.666782 166.434191 
z
" style="fill:#80ff77;fill-opacity:0.5;stroke:#000000;stroke-opacity:0.5;"/>
    <path clip-path="url(#pd22c985537)" d="M 138.534188 164.045568 
C 139.370375 164.045568 140.172426 163.713347 140.7637 163.122074 
C 141.354973 162.5308 141.687194 161.728749 141.687194 160.892562 
C 141.687194 160.056375 141.354973 159.254324 140.7637 158.66305 
C 140.172426 158.071777 139.370375 157.739556 138.534188 157.739556 
C 137.698001 157.739556 136.89595 158.071777 136.304676 158.66305 
C 135.713403 159.254324 135.381182 160.056375 135.381182 160.892562 
C 135.381182 161.728749 135.713403 162.5308 136.304676 163.122074 
C 136.89595 163.713347 137.698001 164.045568 138.534188 164.045568 
z
" style="fill:#002cff;fill-opacity:0.5;stroke:#000000;stroke-opacity:0.5;"/>
    <path clip-path="url(#pd22c985537)" d="M 216.421637 107.413522 
C 219.386496 107.413522 222.23032 106.235571 224.326792 104.139099 
C 226.423263 102.042628 227.601214 99.198803 227.601214 96.233945 
C 227.601214 93.269087 226.423263 90.425262 224.326792 88.32879 
C 222.23032 86.232319 219.386496 85.054368 216.421637 85.054368 
C 213.456779 85.054368 210.612954 86.232319 208.516483 88.32879 
C 206.420011 90.425262 205.24206 93.269087 205.24206 96.233945 
C 205.24206 99.198803 206.420011 102.042628 208.516483 104.139099 
C 210.612954 106.235571 213.456779 107.413522 216.421637 107.413522 
z
" style="fill:#000092;fill-opacity:0.5;stroke:#000000;stroke-opacity:0.5;"/>
    <path clip-path="url(#pd22c985537)" d="M 76.178914 170.524849 
C 78.767813 170.524849 81.251026 169.496269 83.081654 167.665641 
C 84.912282 165.835013 85.940863 163.3518 85.940863 160.762901 
C 85.940863 158.174002 84.912282 155.690789 83.081654 153.860161 
C 81.251026 152.029533 78.767813 151.000952 76.178914 151.000952 
C 73.590015 151.000952 71.106802 152.029533 69.276174 153.860161 
C 67.445546 155.690789 66.416966 158.174002 66.416966 160.762901 
C 66.416966 163.3518 67.445546 165.835013 69.276174 167.665641 
C 71.106802 169.496269 73.590015 170.524849 76.178914 170.524849 
z
" style="fill:#19ffde;fill-opacity:0.5;stroke:#000000;stroke-opacity:0.5;"/>
    <path clip-path="url(#pd22c985537)" d="M 196.834946 93.688018 
C 199.173859 93.688018 201.417292 92.758758 203.071153 91.104896 
C 204.725015 89.451035 205.654275 87.207603 205.654275 84.868689 
C 205.654275 82.529776 204.725015 80.286343 203.071153 78.632482 
C 201.417292 76.97862 199.173859 76.04936 196.834946 76.04936 
C 194.496033 76.04936 192.2526 76.97862 190.598739 78.632482 
C 188.944877 80.286343 188.015617 82.529776 188.015617 84.868689 
C 188.015617 87.207603 188.944877 89.451035 190.598739 91.104896 
C 192.2526 92.758758 194.496033 93.688018 196.834946 93.688018 
z
" style="fill:#000084;fill-opacity:0.5;stroke:#000000;stroke-opacity:0.5;"/>
    <path clip-path="url(#pd22c985537)" d="M 190.303502 215.657589 
C 192.338802 215.657589 194.291016 214.848956 195.73019 213.409782 
C 197.169364 211.970607 197.977998 210.018394 197.977998 207.983094 
C 197.977998 205.947794 197.169364 203.99558 195.73019 202.556406 
C 194.291016 201.117232 192.338802 200.308598 190.303502 200.308598 
C 188.268202 200.308598 186.315989 201.117232 184.876815 202.556406 
C 183.43764 203.99558 182.629007 205.947794 182.629007 207.983094 
C 182.629007 210.018394 183.43764 211.970607 184.876815 213.409782 
C 186.315989 214.848956 188.268202 215.657589 190.303502 215.657589 
z
" style="fill:#000080;fill-opacity:0.5;stroke:#000000;stroke-opacity:0.5;"/>
    <path clip-path="url(#pd22c985537)" d="M 108.396112 187.806877 
C 108.962823 187.806877 109.506399 187.58172 109.907124 187.180995 
C 110.307849 186.78027 110.533006 186.236694 110.533006 185.669983 
C 110.533006 185.103272 110.307849 184.559696 109.907124 184.158971 
C 109.506399 183.758246 108.962823 183.533089 108.396112 183.533089 
C 107.829401 183.533089 107.285825 183.758246 106.8851 184.158971 
C 106.484374 184.559696 106.259218 185.103272 106.259218 185.669983 
C 106.259218 186.236694 106.484374 186.78027 106.8851 187.180995 
C 107.285825 187.58172 107.829401 187.806877 108.396112 187.806877 
z
" style="fill:#0000c8;fill-opacity:0.5;stroke:#000000;stroke-opacity:0.5;"/>
    <path clip-path="url(#pd22c985537)" d="M 106.477236 72.234723 
C 107.196224 72.234723 107.885861 71.949066 108.394262 71.440665 
C 108.902664 70.932264 109.188321 70.242627 109.188321 69.523638 
C 109.188321 68.80465 108.902664 68.115013 108.394262 67.606612 
C 107.885861 67.09821 107.196224 66.812553 106.477236 66.812553 
C 105.758247 66.812553 105.06861 67.09821 104.560209 67.606612 
C 104.051808 68.115013 103.766151 68.80465 103.766151 69.523638 
C 103.766151 70.242627 104.051808 70.932264 104.560209 71.440665 
C 105.06861 71.949066 105.758247 72.234723 106.477236 72.234723 
z
" style="fill:#0000e8;fill-opacity:0.5;stroke:#000000;stroke-opacity:0.5;"/>
    <path clip-path="url(#pd22c985537)" d="M 203.12091 224.703567 
C 204.833114 224.703567 206.475421 224.023301 207.686132 222.812591 
C 208.896843 221.60188 209.577108 219.959573 209.577108 218.247369 
C 209.577108 216.535165 208.896843 214.892859 207.686132 213.682148 
C 206.475421 212.471437 204.833114 211.791171 203.12091 211.791171 
C 201.408706 211.791171 199.7664 212.471437 198.555689 213.682148 
C 197.344978 214.892859 196.664712 216.535165 196.664712 218.247369 
C 196.664712 219.959573 197.344978 221.60188 198.555689 222.812591 
C 199.7664 224.023301 201.408706 224.703567 203.12091 224.703567 
z
" style="fill:#003cff;fill-opacity:0.5;stroke:#000000;stroke-opacity:0.5;"/>
    <path clip-path="url(#pd22c985537)" d="M 107.432198 84.700526 
C 108.44297 84.700526 109.412479 84.298942 110.127202 83.584218 
C 110.841926 82.869495 111.24351 81.899985 111.24351 80.889214 
C 111.24351 79.878442 110.841926 78.908933 110.127202 78.194209 
C 109.412479 77.479485 108.44297 77.077902 107.432198 77.077902 
C 106.421426 77.077902 105.451917 77.479485 104.737193 78.194209 
C 104.02247 78.908933 103.620886 79.878442 103.620886 80.889214 
C 103.620886 81.899985 104.02247 82.869495 104.737193 83.584218 
C 105.451917 84.298942 106.421426 84.700526 107.432198 84.700526 
z
" style="fill:#ff2900;fill-opacity:0.5;stroke:#000000;stroke-opacity:0.5;"/>
    <path clip-path="url(#pd22c985537)" d="M 70.093896 136.718593 
C 72.055731 136.718593 73.937478 135.939148 75.324704 134.551922 
C 76.71193 133.164695 77.491375 131.282949 77.491375 129.321114 
C 77.491375 127.35928 76.71193 125.477533 75.324704 124.090307 
C 73.937478 122.70308 72.055731 121.923635 70.093896 121.923635 
C 68.132062 121.923635 66.250315 122.70308 64.863089 124.090307 
C 63.475863 125.477533 62.696417 127.35928 62.696417 129.321114 
C 62.696417 131.282949 63.475863 133.164695 64.863089 134.551922 
C 66.250315 135.939148 68.132062 136.718593 70.093896 136.718593 
z
" style="fill:#8dff6a;fill-opacity:0.5;stroke:#000000;stroke-opacity:0.5;"/>
    <path clip-path="url(#pd22c985537)" d="M 137.591817 123.863478 
C 137.896774 123.863478 138.189281 123.742317 138.404918 123.526681 
C 138.620555 123.311044 138.741715 123.018536 138.741715 122.71358 
C 138.741715 122.408623 138.620555 122.116116 138.404918 121.900479 
C 138.189281 121.684842 137.896774 121.563682 137.591817 121.563682 
C 137.286861 121.563682 136.994354 121.684842 136.778717 121.900479 
C 136.56308 122.116116 136.441919 122.408623 136.441919 122.71358 
C 136.441919 123.018536 136.56308 123.311044 136.778717 123.526681 
C 136.994354 123.742317 137.286861 123.863478 137.591817 123.863478 
z
" style="fill:#003cff;fill-opacity:0.5;stroke:#000000;stroke-opacity:0.5;"/>
    <path clip-path="url(#pd22c985537)" d="M 79.484803 177.505006 
C 81.975712 177.505006 84.364935 176.515357 86.126274 174.754018 
C 87.887613 172.99268 88.877261 170.603457 88.877261 168.112548 
C 88.877261 165.621639 87.887613 163.232415 86.126274 161.471077 
C 84.364935 159.709738 81.975712 158.72009 79.484803 158.72009 
C 76.993894 158.72009 74.604671 159.709738 72.843332 161.471077 
C 71.081994 163.232415 70.092345 165.621639 70.092345 168.112548 
C 70.092345 170.603457 71.081994 172.99268 72.843332 174.754018 
C 74.604671 176.515357 76.993894 177.505006 79.484803 177.505006 
z
" style="fill:#ff4300;fill-opacity:0.5;stroke:#000000;stroke-opacity:0.5;"/>
    <path clip-path="url(#pd22c985537)" d="M 76.692195 85.891693 
C 77.776813 85.891693 78.817154 85.46077 79.584095 84.693829 
C 80.351036 83.926888 80.78196 82.886547 80.78196 81.801928 
C 80.78196 80.71731 80.351036 79.676969 79.584095 78.910028 
C 78.817154 78.143087 77.776813 77.712164 76.692195 77.712164 
C 75.607577 77.712164 74.567235 78.143087 73.800294 78.910028 
C 73.033354 79.676969 72.60243 80.71731 72.60243 81.801928 
C 72.60243 82.886547 73.033354 83.926888 73.800294 84.693829 
C 74.567235 85.46077 75.607577 85.891693 76.692195 85.891693 
z
" style="fill:#dbff1c;fill-opacity:0.5;stroke:#000000;stroke-opacity:0.5;"/>
    <path clip-path="url(#pd22c985537)" d="M 130.509977 111.95098 
C 131.055274 111.95098 131.57831 111.734332 131.963893 111.348749 
C 132.349475 110.963166 132.566124 110.44013 132.566124 109.894833 
C 132.566124 109.349536 132.349475 108.8265 131.963893 108.440917 
C 131.57831 108.055335 131.055274 107.838686 130.509977 107.838686 
C 129.96468 107.838686 129.441644 108.055335 129.056061 108.440917 
C 128.670478 108.8265 128.45383 109.349536 128.45383 109.894833 
C 128.45383 110.44013 128.670478 110.963166 129.056061 111.348749 
C 129.441644 111.734332 129.96468 111.95098 130.509977 111.95098 
z
" style="fill:#43ffb4;fill-opacity:0.5;stroke:#000000;stroke-opacity:0.5;"/>
    <path clip-path="url(#pd22c985537)" d="M 144.113767 212.787555 
C 145.693248 212.787555 147.20825 212.160021 148.325112 211.043159 
C 149.441974 209.926297 150.069508 208.411295 150.069508 206.831814 
C 150.069508 205.252333 149.441974 203.737331 148.325112 202.62047 
C 147.20825 201.503608 145.693248 200.876073 144.113767 200.876073 
C 142.534286 200.876073 141.019284 201.503608 139.902422 202.62047 
C 138.785561 203.737331 138.158026 205.252333 138.158026 206.831814 
C 138.158026 208.411295 138.785561 209.926297 139.902422 211.043159 
C 141.019284 212.160021 142.534286 212.787555 144.113767 212.787555 
z
" style="fill:#63ff94;fill-opacity:0.5;stroke:#000000;stroke-opacity:0.5;"/>
    <path clip-path="url(#pd22c985537)" d="M 183.965358 156.72067 
C 186.307575 156.72067 188.554176 155.790097 190.210373 154.1339 
C 191.866571 152.477703 192.797143 150.231102 192.797143 147.888885 
C 192.797143 145.546668 191.866571 143.300067 190.210373 141.643869 
C 188.554176 139.987672 186.307575 139.057099 183.965358 139.057099 
C 181.623141 139.057099 179.37654 139.987672 177.720343 141.643869 
C 176.064145 143.300067 175.133573 145.546668 175.133573 147.888885 
C 175.133573 150.231102 176.064145 152.477703 177.720343 154.1339 
C 179.37654 155.790097 181.623141 156.72067 183.965358 156.72067 
z
" style="fill:#beff39;fill-opacity:0.5;stroke:#000000;stroke-opacity:0.5;"/>
    <path clip-path="url(#pd22c985537)" d="M 128.506544 72.620061 
C 130.134177 72.620061 131.695364 71.973396 132.846274 70.822486 
C 133.997184 69.671576 134.643849 68.110389 134.643849 66.482756 
C 134.643849 64.855124 133.997184 63.293936 132.846274 62.143026 
C 131.695364 60.992117 130.134177 60.345451 128.506544 60.345451 
C 126.878912 60.345451 125.317724 60.992117 124.166814 62.143026 
C 123.015905 63.293936 122.369239 64.855124 122.369239 66.482756 
C 122.369239 68.110389 123.015905 69.671576 124.166814 70.822486 
C 125.317724 71.973396 126.878912 72.620061 128.506544 72.620061 
z
" style="fill:#ff7700;fill-opacity:0.5;stroke:#000000;stroke-opacity:0.5;"/>
    <path clip-path="url(#pd22c985537)" d="M 121.992539 179.227193 
C 123.975992 179.227193 125.878476 178.439159 127.28099 177.036645 
C 128.683503 175.634132 129.471538 173.731648 129.471538 171.748194 
C 129.471538 169.764741 128.683503 167.862257 127.28099 166.459744 
C 125.878476 165.05723 123.975992 164.269195 121.992539 164.269195 
C 120.009085 164.269195 118.106602 165.05723 116.704088 166.459744 
C 115.301574 167.862257 114.51354 169.764741 114.51354 171.748194 
C 114.51354 173.731648 115.301574 175.634132 116.704088 177.036645 
C 118.106602 178.439159 120.009085 179.227193 121.992539 179.227193 
z
" style="fill:#ff5900;fill-opacity:0.5;stroke:#000000;stroke-opacity:0.5;"/>
    <path clip-path="url(#pd22c985537)" d="M 93.359173 71.741517 
C 94.509808 71.741517 95.613471 71.284365 96.427093 70.470743 
C 97.240715 69.657121 97.697867 68.553458 97.697867 67.402823 
C 97.697867 66.252187 97.240715 65.148524 96.427093 64.334902 
C 95.613471 63.52128 94.509808 63.064128 93.359173 63.064128 
C 92.208537 63.064128 91.104874 63.52128 90.291252 64.334902 
C 89.47763 65.148524 89.020478 66.252187 89.020478 67.402823 
C 89.020478 68.553458 89.47763 69.657121 90.291252 70.470743 
C 91.104874 71.284365 92.208537 71.741517 93.359173 71.741517 
z
" style="fill:#00a0ff;fill-opacity:0.5;stroke:#000000;stroke-opacity:0.5;"/>
    <path clip-path="url(#pd22c985537)" d="M 84.03706 101.733591 
C 85.770822 101.733591 87.433806 101.04476 88.65976 99.818806 
C 89.885715 98.592851 90.574546 96.929867 90.574546 95.196106 
C 90.574546 93.462344 89.885715 91.79936 88.65976 90.573405 
C 87.433806 89.347451 85.770822 88.65862 84.03706 88.65862 
C 82.303299 88.65862 80.640314 89.347451 79.41436 90.573405 
C 78.188406 91.79936 77.499575 93.462344 77.499575 95.196106 
C 77.499575 96.929867 78.188406 98.592851 79.41436 99.818806 
C 80.640314 101.04476 82.303299 101.733591 84.03706 101.733591 
z
" style="fill:#00bcff;fill-opacity:0.5;stroke:#000000;stroke-opacity:0.5;"/>
   </g>
   <g id="patch_3">
    <path d="M 36 28.8 
L 259.2 28.8 
" style="fill:none;stroke:#000000;stroke-linecap:square;stroke-linejoin:miter;"/>
   </g>
   <g id="patch_4">
    <path d="M 259.2 259.2 
L 259.2 28.8 
" style="fill:none;stroke:#000000;stroke-linecap:square;stroke-linejoin:miter;"/>
   </g>
   <g id="patch_5">
    <path d="M 36 259.2 
L 259.2 259.2 
" style="fill:none;stroke:#000000;stroke-linecap:square;stroke-linejoin:miter;"/>
   </g>
   <g id="patch_6">
    <path d="M 36 259.2 
L 36 28.8 
" style="fill:none;stroke:#000000;stroke-linecap:square;stroke-linejoin:miter;"/>
   </g>
   <g id="matplotlib.axis_1">
    <g id="xtick_1">
     <g id="line2d_1">
      <defs>
       <path d="M 0 0 
L 0 -4 
" id="mbe804ec54e" style="stroke:#000000;stroke-width:0.5;"/>
      </defs>
      <g>
       <use style="stroke:#000000;stroke-width:0.5;" x="36.0" xlink:href="#mbe804ec54e" y="259.2"/>
      </g>
     </g>
     <g id="line2d_2">
      <defs>
       <path d="M 0 0 
L 0 4 
" id="mac16e4b1d0" style="stroke:#000000;stroke-width:0.5;"/>
      </defs>
      <g>
       <use style="stroke:#000000;stroke-width:0.5;" x="36.0" xlink:href="#mac16e4b1d0" y="28.8"/>
      </g>
     </g>
     <g id="text_1">
      <!-- −0.2 -->
      <defs>
       <path d="M 10.59375 35.5 
L 73.1875 35.5 
L 73.1875 27.203125 
L 10.59375 27.203125 
z
" id="BitstreamVeraSans-Roman-2212"/>
       <path d="M 19.1875 8.296875 
L 53.609375 8.296875 
L 53.609375 0 
L 7.328125 0 
L 7.328125 8.296875 
Q 12.9375 14.109375 22.625 23.890625 
Q 32.328125 33.6875 34.8125 36.53125 
Q 39.546875 41.84375 41.421875 45.53125 
Q 43.3125 49.21875 43.3125 52.78125 
Q 43.3125 58.59375 39.234375 62.25 
Q 35.15625 65.921875 28.609375 65.921875 
Q 23.96875 65.921875 18.8125 64.3125 
Q 13.671875 62.703125 7.8125 59.421875 
L 7.8125 69.390625 
Q 13.765625 71.78125 18.9375 73 
Q 24.125 74.21875 28.421875 74.21875 
Q 39.75 74.21875 46.484375 68.546875 
Q 53.21875 62.890625 53.21875 53.421875 
Q 53.21875 48.921875 51.53125 44.890625 
Q 49.859375 40.875 45.40625 35.40625 
Q 44.1875 33.984375 37.640625 27.21875 
Q 31.109375 20.453125 19.1875 8.296875 
" id="BitstreamVeraSans-Roman-32"/>
       <path d="M 31.78125 66.40625 
Q 24.171875 66.40625 20.328125 58.90625 
Q 16.5 51.421875 16.5 36.375 
Q 16.5 21.390625 20.328125 13.890625 
Q 24.171875 6.390625 31.78125 6.390625 
Q 39.453125 6.390625 43.28125 13.890625 
Q 47.125 21.390625 47.125 36.375 
Q 47.125 51.421875 43.28125 58.90625 
Q 39.453125 66.40625 31.78125 66.40625 
M 31.78125 74.21875 
Q 44.046875 74.21875 50.515625 64.515625 
Q 56.984375 54.828125 56.984375 36.375 
Q 56.984375 17.96875 50.515625 8.265625 
Q 44.046875 -1.421875 31.78125 -1.421875 
Q 19.53125 -1.421875 13.0625 8.265625 
Q 6.59375 17.96875 6.59375 36.375 
Q 6.59375 54.828125 13.0625 64.515625 
Q 19.53125 74.21875 31.78125 74.21875 
" id="BitstreamVeraSans-Roman-30"/>
       <path d="M 10.6875 12.40625 
L 21 12.40625 
L 21 0 
L 10.6875 0 
z
" id="BitstreamVeraSans-Roman-2e"/>
      </defs>
      <g transform="translate(21.4303125 272.318125)scale(0.12 -0.12)">
       <use xlink:href="#BitstreamVeraSans-Roman-2212"/>
       <use x="83.7890625" xlink:href="#BitstreamVeraSans-Roman-30"/>
       <use x="147.412109375" xlink:href="#BitstreamVeraSans-Roman-2e"/>
       <use x="179.19921875" xlink:href="#BitstreamVeraSans-Roman-32"/>
      </g>
     </g>
    </g>
    <g id="xtick_2">
     <g id="line2d_3">
      <g>
       <use style="stroke:#000000;stroke-width:0.5;" x="67.8857142857" xlink:href="#mbe804ec54e" y="259.2"/>
      </g>
     </g>
     <g id="line2d_4">
      <g>
       <use style="stroke:#000000;stroke-width:0.5;" x="67.8857142857" xlink:href="#mac16e4b1d0" y="28.8"/>
      </g>
     </g>
     <g id="text_2">
      <!-- 0.0 -->
      <g transform="translate(58.3438392857 272.318125)scale(0.12 -0.12)">
       <use xlink:href="#BitstreamVeraSans-Roman-30"/>
       <use x="63.623046875" xlink:href="#BitstreamVeraSans-Roman-2e"/>
       <use x="95.41015625" xlink:href="#BitstreamVeraSans-Roman-30"/>
      </g>
     </g>
    </g>
    <g id="xtick_3">
     <g id="line2d_5">
      <g>
       <use style="stroke:#000000;stroke-width:0.5;" x="99.7714285714" xlink:href="#mbe804ec54e" y="259.2"/>
      </g>
     </g>
     <g id="line2d_6">
      <g>
       <use style="stroke:#000000;stroke-width:0.5;" x="99.7714285714" xlink:href="#mac16e4b1d0" y="28.8"/>
      </g>
     </g>
     <g id="text_3">
      <!-- 0.2 -->
      <g transform="translate(90.2295535714 272.318125)scale(0.12 -0.12)">
       <use xlink:href="#BitstreamVeraSans-Roman-30"/>
       <use x="63.623046875" xlink:href="#BitstreamVeraSans-Roman-2e"/>
       <use x="95.41015625" xlink:href="#BitstreamVeraSans-Roman-32"/>
      </g>
     </g>
    </g>
    <g id="xtick_4">
     <g id="line2d_7">
      <g>
       <use style="stroke:#000000;stroke-width:0.5;" x="131.657142857" xlink:href="#mbe804ec54e" y="259.2"/>
      </g>
     </g>
     <g id="line2d_8">
      <g>
       <use style="stroke:#000000;stroke-width:0.5;" x="131.657142857" xlink:href="#mac16e4b1d0" y="28.8"/>
      </g>
     </g>
     <g id="text_4">
      <!-- 0.4 -->
      <defs>
       <path d="M 37.796875 64.3125 
L 12.890625 25.390625 
L 37.796875 25.390625 
z
M 35.203125 72.90625 
L 47.609375 72.90625 
L 47.609375 25.390625 
L 58.015625 25.390625 
L 58.015625 17.1875 
L 47.609375 17.1875 
L 47.609375 0 
L 37.796875 0 
L 37.796875 17.1875 
L 4.890625 17.1875 
L 4.890625 26.703125 
z
" id="BitstreamVeraSans-Roman-34"/>
      </defs>
      <g transform="translate(122.115267857 272.318125)scale(0.12 -0.12)">
       <use xlink:href="#BitstreamVeraSans-Roman-30"/>
       <use x="63.623046875" xlink:href="#BitstreamVeraSans-Roman-2e"/>
       <use x="95.41015625" xlink:href="#BitstreamVeraSans-Roman-34"/>
      </g>
     </g>
    </g>
    <g id="xtick_5">
     <g id="line2d_9">
      <g>
       <use style="stroke:#000000;stroke-width:0.5;" x="163.542857143" xlink:href="#mbe804ec54e" y="259.2"/>
      </g>
     </g>
     <g id="line2d_10">
      <g>
       <use style="stroke:#000000;stroke-width:0.5;" x="163.542857143" xlink:href="#mac16e4b1d0" y="28.8"/>
      </g>
     </g>
     <g id="text_5">
      <!-- 0.6 -->
      <defs>
       <path d="M 33.015625 40.375 
Q 26.375 40.375 22.484375 35.828125 
Q 18.609375 31.296875 18.609375 23.390625 
Q 18.609375 15.53125 22.484375 10.953125 
Q 26.375 6.390625 33.015625 6.390625 
Q 39.65625 6.390625 43.53125 10.953125 
Q 47.40625 15.53125 47.40625 23.390625 
Q 47.40625 31.296875 43.53125 35.828125 
Q 39.65625 40.375 33.015625 40.375 
M 52.59375 71.296875 
L 52.59375 62.3125 
Q 48.875 64.0625 45.09375 64.984375 
Q 41.3125 65.921875 37.59375 65.921875 
Q 27.828125 65.921875 22.671875 59.328125 
Q 17.53125 52.734375 16.796875 39.40625 
Q 19.671875 43.65625 24.015625 45.921875 
Q 28.375 48.1875 33.59375 48.1875 
Q 44.578125 48.1875 50.953125 41.515625 
Q 57.328125 34.859375 57.328125 23.390625 
Q 57.328125 12.15625 50.6875 5.359375 
Q 44.046875 -1.421875 33.015625 -1.421875 
Q 20.359375 -1.421875 13.671875 8.265625 
Q 6.984375 17.96875 6.984375 36.375 
Q 6.984375 53.65625 15.1875 63.9375 
Q 23.390625 74.21875 37.203125 74.21875 
Q 40.921875 74.21875 44.703125 73.484375 
Q 48.484375 72.75 52.59375 71.296875 
" id="BitstreamVeraSans-Roman-36"/>
      </defs>
      <g transform="translate(154.000982143 272.318125)scale(0.12 -0.12)">
       <use xlink:href="#BitstreamVeraSans-Roman-30"/>
       <use x="63.623046875" xlink:href="#BitstreamVeraSans-Roman-2e"/>
       <use x="95.41015625" xlink:href="#BitstreamVeraSans-Roman-36"/>
      </g>
     </g>
    </g>
    <g id="xtick_6">
     <g id="line2d_11">
      <g>
       <use style="stroke:#000000;stroke-width:0.5;" x="195.428571429" xlink:href="#mbe804ec54e" y="259.2"/>
      </g>
     </g>
     <g id="line2d_12">
      <g>
       <use style="stroke:#000000;stroke-width:0.5;" x="195.428571429" xlink:href="#mac16e4b1d0" y="28.8"/>
      </g>
     </g>
     <g id="text_6">
      <!-- 0.8 -->
      <defs>
       <path d="M 31.78125 34.625 
Q 24.75 34.625 20.71875 30.859375 
Q 16.703125 27.09375 16.703125 20.515625 
Q 16.703125 13.921875 20.71875 10.15625 
Q 24.75 6.390625 31.78125 6.390625 
Q 38.8125 6.390625 42.859375 10.171875 
Q 46.921875 13.96875 46.921875 20.515625 
Q 46.921875 27.09375 42.890625 30.859375 
Q 38.875 34.625 31.78125 34.625 
M 21.921875 38.8125 
Q 15.578125 40.375 12.03125 44.71875 
Q 8.5 49.078125 8.5 55.328125 
Q 8.5 64.0625 14.71875 69.140625 
Q 20.953125 74.21875 31.78125 74.21875 
Q 42.671875 74.21875 48.875 69.140625 
Q 55.078125 64.0625 55.078125 55.328125 
Q 55.078125 49.078125 51.53125 44.71875 
Q 48 40.375 41.703125 38.8125 
Q 48.828125 37.15625 52.796875 32.3125 
Q 56.78125 27.484375 56.78125 20.515625 
Q 56.78125 9.90625 50.3125 4.234375 
Q 43.84375 -1.421875 31.78125 -1.421875 
Q 19.734375 -1.421875 13.25 4.234375 
Q 6.78125 9.90625 6.78125 20.515625 
Q 6.78125 27.484375 10.78125 32.3125 
Q 14.796875 37.15625 21.921875 38.8125 
M 18.3125 54.390625 
Q 18.3125 48.734375 21.84375 45.5625 
Q 25.390625 42.390625 31.78125 42.390625 
Q 38.140625 42.390625 41.71875 45.5625 
Q 45.3125 48.734375 45.3125 54.390625 
Q 45.3125 60.0625 41.71875 63.234375 
Q 38.140625 66.40625 31.78125 66.40625 
Q 25.390625 66.40625 21.84375 63.234375 
Q 18.3125 60.0625 18.3125 54.390625 
" id="BitstreamVeraSans-Roman-38"/>
      </defs>
      <g transform="translate(185.886696429 272.318125)scale(0.12 -0.12)">
       <use xlink:href="#BitstreamVeraSans-Roman-30"/>
       <use x="63.623046875" xlink:href="#BitstreamVeraSans-Roman-2e"/>
       <use x="95.41015625" xlink:href="#BitstreamVeraSans-Roman-38"/>
      </g>
     </g>
    </g>
    <g id="xtick_7">
     <g id="line2d_13">
      <g>
       <use style="stroke:#000000;stroke-width:0.5;" x="227.314285714" xlink:href="#mbe804ec54e" y="259.2"/>
      </g>
     </g>
     <g id="line2d_14">
      <g>
       <use style="stroke:#000000;stroke-width:0.5;" x="227.314285714" xlink:href="#mac16e4b1d0" y="28.8"/>
      </g>
     </g>
     <g id="text_7">
      <!-- 1.0 -->
      <defs>
       <path d="M 12.40625 8.296875 
L 28.515625 8.296875 
L 28.515625 63.921875 
L 10.984375 60.40625 
L 10.984375 69.390625 
L 28.421875 72.90625 
L 38.28125 72.90625 
L 38.28125 8.296875 
L 54.390625 8.296875 
L 54.390625 0 
L 12.40625 0 
z
" id="BitstreamVeraSans-Roman-31"/>
      </defs>
      <g transform="translate(217.772410714 272.318125)scale(0.12 -0.12)">
       <use xlink:href="#BitstreamVeraSans-Roman-31"/>
       <use x="63.623046875" xlink:href="#BitstreamVeraSans-Roman-2e"/>
       <use x="95.41015625" xlink:href="#BitstreamVeraSans-Roman-30"/>
      </g>
     </g>
    </g>
    <g id="xtick_8">
     <g id="line2d_15">
      <g>
       <use style="stroke:#000000;stroke-width:0.5;" x="259.2" xlink:href="#mbe804ec54e" y="259.2"/>
      </g>
     </g>
     <g id="line2d_16">
      <g>
       <use style="stroke:#000000;stroke-width:0.5;" x="259.2" xlink:href="#mac16e4b1d0" y="28.8"/>
      </g>
     </g>
     <g id="text_8">
      <!-- 1.2 -->
      <g transform="translate(249.658125 272.318125)scale(0.12 -0.12)">
       <use xlink:href="#BitstreamVeraSans-Roman-31"/>
       <use x="63.623046875" xlink:href="#BitstreamVeraSans-Roman-2e"/>
       <use x="95.41015625" xlink:href="#BitstreamVeraSans-Roman-32"/>
      </g>
     </g>
    </g>
   </g>
   <g id="matplotlib.axis_2">
    <g id="ytick_1">
     <g id="line2d_17">
      <defs>
       <path d="M 0 0 
L 4 0 
" id="m6a61b84573" style="stroke:#000000;stroke-width:0.5;"/>
      </defs>
      <g>
       <use style="stroke:#000000;stroke-width:0.5;" x="36.0" xlink:href="#m6a61b84573" y="259.2"/>
      </g>
     </g>
     <g id="line2d_18">
      <defs>
       <path d="M 0 0 
L -4 0 
" id="m839a90a8b6" style="stroke:#000000;stroke-width:0.5;"/>
      </defs>
      <g>
       <use style="stroke:#000000;stroke-width:0.5;" x="259.2" xlink:href="#m839a90a8b6" y="259.2"/>
      </g>
     </g>
     <g id="text_9">
      <!-- −0.2 -->
      <g transform="translate(2.860625 262.51125)scale(0.12 -0.12)">
       <use xlink:href="#BitstreamVeraSans-Roman-2212"/>
       <use x="83.7890625" xlink:href="#BitstreamVeraSans-Roman-30"/>
       <use x="147.412109375" xlink:href="#BitstreamVeraSans-Roman-2e"/>
       <use x="179.19921875" xlink:href="#BitstreamVeraSans-Roman-32"/>
      </g>
     </g>
    </g>
    <g id="ytick_2">
     <g id="line2d_19">
      <g>
       <use style="stroke:#000000;stroke-width:0.5;" x="36.0" xlink:href="#m6a61b84573" y="226.285714286"/>
      </g>
     </g>
     <g id="line2d_20">
      <g>
       <use style="stroke:#000000;stroke-width:0.5;" x="259.2" xlink:href="#m839a90a8b6" y="226.285714286"/>
      </g>
     </g>
     <g id="text_10">
      <!-- 0.0 -->
      <g transform="translate(12.91625 229.596964286)scale(0.12 -0.12)">
       <use xlink:href="#BitstreamVeraSans-Roman-30"/>
       <use x="63.623046875" xlink:href="#BitstreamVeraSans-Roman-2e"/>
       <use x="95.41015625" xlink:href="#BitstreamVeraSans-Roman-30"/>
      </g>
     </g>
    </g>
    <g id="ytick_3">
     <g id="line2d_21">
      <g>
       <use style="stroke:#000000;stroke-width:0.5;" x="36.0" xlink:href="#m6a61b84573" y="193.371428571"/>
      </g>
     </g>
     <g id="line2d_22">
      <g>
       <use style="stroke:#000000;stroke-width:0.5;" x="259.2" xlink:href="#m839a90a8b6" y="193.371428571"/>
      </g>
     </g>
     <g id="text_11">
      <!-- 0.2 -->
      <g transform="translate(12.91625 196.682678571)scale(0.12 -0.12)">
       <use xlink:href="#BitstreamVeraSans-Roman-30"/>
       <use x="63.623046875" xlink:href="#BitstreamVeraSans-Roman-2e"/>
       <use x="95.41015625" xlink:href="#BitstreamVeraSans-Roman-32"/>
      </g>
     </g>
    </g>
    <g id="ytick_4">
     <g id="line2d_23">
      <g>
       <use style="stroke:#000000;stroke-width:0.5;" x="36.0" xlink:href="#m6a61b84573" y="160.457142857"/>
      </g>
     </g>
     <g id="line2d_24">
      <g>
       <use style="stroke:#000000;stroke-width:0.5;" x="259.2" xlink:href="#m839a90a8b6" y="160.457142857"/>
      </g>
     </g>
     <g id="text_12">
      <!-- 0.4 -->
      <g transform="translate(12.91625 163.768392857)scale(0.12 -0.12)">
       <use xlink:href="#BitstreamVeraSans-Roman-30"/>
       <use x="63.623046875" xlink:href="#BitstreamVeraSans-Roman-2e"/>
       <use x="95.41015625" xlink:href="#BitstreamVeraSans-Roman-34"/>
      </g>
     </g>
    </g>
    <g id="ytick_5">
     <g id="line2d_25">
      <g>
       <use style="stroke:#000000;stroke-width:0.5;" x="36.0" xlink:href="#m6a61b84573" y="127.542857143"/>
      </g>
     </g>
     <g id="line2d_26">
      <g>
       <use style="stroke:#000000;stroke-width:0.5;" x="259.2" xlink:href="#m839a90a8b6" y="127.542857143"/>
      </g>
     </g>
     <g id="text_13">
      <!-- 0.6 -->
      <g transform="translate(12.91625 130.854107143)scale(0.12 -0.12)">
       <use xlink:href="#BitstreamVeraSans-Roman-30"/>
       <use x="63.623046875" xlink:href="#BitstreamVeraSans-Roman-2e"/>
       <use x="95.41015625" xlink:href="#BitstreamVeraSans-Roman-36"/>
      </g>
     </g>
    </g>
    <g id="ytick_6">
     <g id="line2d_27">
      <g>
       <use style="stroke:#000000;stroke-width:0.5;" x="36.0" xlink:href="#m6a61b84573" y="94.6285714286"/>
      </g>
     </g>
     <g id="line2d_28">
      <g>
       <use style="stroke:#000000;stroke-width:0.5;" x="259.2" xlink:href="#m839a90a8b6" y="94.6285714286"/>
      </g>
     </g>
     <g id="text_14">
      <!-- 0.8 -->
      <g transform="translate(12.91625 97.9398214286)scale(0.12 -0.12)">
       <use xlink:href="#BitstreamVeraSans-Roman-30"/>
       <use x="63.623046875" xlink:href="#BitstreamVeraSans-Roman-2e"/>
       <use x="95.41015625" xlink:href="#BitstreamVeraSans-Roman-38"/>
      </g>
     </g>
    </g>
    <g id="ytick_7">
     <g id="line2d_29">
      <g>
       <use style="stroke:#000000;stroke-width:0.5;" x="36.0" xlink:href="#m6a61b84573" y="61.7142857143"/>
      </g>
     </g>
     <g id="line2d_30">
      <g>
       <use style="stroke:#000000;stroke-width:0.5;" x="259.2" xlink:href="#m839a90a8b6" y="61.7142857143"/>
      </g>
     </g>
     <g id="text_15">
      <!-- 1.0 -->
      <g transform="translate(12.91625 65.0255357143)scale(0.12 -0.12)">
       <use xlink:href="#BitstreamVeraSans-Roman-31"/>
       <use x="63.623046875" xlink:href="#BitstreamVeraSans-Roman-2e"/>
       <use x="95.41015625" xlink:href="#BitstreamVeraSans-Roman-30"/>
      </g>
     </g>
    </g>
    <g id="ytick_8">
     <g id="line2d_31">
      <g>
       <use style="stroke:#000000;stroke-width:0.5;" x="36.0" xlink:href="#m6a61b84573" y="28.8"/>
      </g>
     </g>
     <g id="line2d_32">
      <g>
       <use style="stroke:#000000;stroke-width:0.5;" x="259.2" xlink:href="#m839a90a8b6" y="28.8"/>
      </g>
     </g>
     <g id="text_16">
      <!-- 1.2 -->
      <g transform="translate(12.91625 32.11125)scale(0.12 -0.12)">
       <use xlink:href="#BitstreamVeraSans-Roman-31"/>
       <use x="63.623046875" xlink:href="#BitstreamVeraSans-Roman-2e"/>
       <use x="95.41015625" xlink:href="#BitstreamVeraSans-Roman-32"/>
      </g>
     </g>
    </g>
   </g>
  </g>
 </g>
 <defs>
  <clipPath id="pd22c985537">
   <rect height="230.4" width="223.2" x="36.0" y="28.8"/>
  </clipPath>
 </defs>
</svg>
