<?xml version="1.0" encoding="utf-8" standalone="no"?>
<!DOCTYPE svg PUBLIC "-//W3C//DTD SVG 1.1//EN"
  "http://www.w3.org/Graphics/SVG/1.1/DTD/svg11.dtd">
<!-- Created with matplotlib (http://matplotlib.org/) -->
<svg height="72pt" version="1.1" viewBox="0 0 72 72" width="72pt" xmlns="http://www.w3.org/2000/svg" xmlns:xlink="http://www.w3.org/1999/xlink">
 <defs>
  <style type="text/css">
*{stroke-linecap:butt;stroke-linejoin:round;stroke-miterlimit:100000;}
  </style>
 </defs>
 <g id="figure_1">
  <g id="patch_1">
   <path d="M 0 72 
L 72 72 
L 72 0 
L 0 0 
z
" style="fill:#ffffff;"/>
  </g>
  <g id="axes_1">
   <g id="PathCollection_1">
    <path clip-path="url(#p5951feff60)" d="M 44.601446 39.522898 
C 45.285387 39.522898 45.941408 39.251165 46.425028 38.767545 
C 46.908648 38.283926 47.180381 37.627905 47.180381 36.943963 
C 47.180381 36.260022 46.908648 35.604001 46.425028 35.120381 
C 45.941408 34.636761 45.285387 34.365029 44.601446 34.365029 
C 43.917504 34.365029 43.261483 34.636761 42.777864 35.120381 
C 42.294244 35.604001 42.022511 36.260022 42.022511 36.943963 
C 42.022511 37.627905 42.294244 38.283926 42.777864 38.767545 
C 43.261483 39.251165 43.917504 39.522898 44.601446 39.522898 
z
" style="fill:#f10800;fill-opacity:0.5;stroke:#000000;stroke-opacity:0.5;"/>
    <path clip-path="url(#p5951feff60)" d="M 28.508802 37.942353 
C 29.312668 37.942353 30.083718 37.622973 30.652137 37.054554 
C 31.220556 36.486135 31.539935 35.715085 31.539935 34.911219 
C 31.539935 34.107353 31.220556 33.336303 30.652137 32.767884 
C 30.083718 32.199465 29.312668 31.880086 28.508802 31.880086 
C 27.704936 31.880086 26.933886 32.199465 26.365467 32.767884 
C 25.797048 33.336303 25.477669 34.107353 25.477669 34.911219 
C 25.477669 35.715085 25.797048 36.486135 26.365467 37.054554 
C 26.933886 37.622973 27.704936 37.942353 28.508802 37.942353 
z
" style="fill:#ff4700;fill-opacity:0.5;stroke:#000000;stroke-opacity:0.5;"/>
    <path clip-path="url(#p5951feff60)" d="M 31.895589 35.25465 
C 35.337887 35.25465 38.63966 33.88701 41.073732 31.452938 
C 43.507804 29.018866 44.875444 25.717093 44.875444 22.274795 
C 44.875444 18.832498 43.507804 15.530724 41.073732 13.096652 
C 38.63966 10.662581 35.337887 9.294941 31.895589 9.294941 
C 28.453292 9.294941 25.151518 10.662581 22.717446 13.096652 
C 20.283374 15.530724 18.915735 18.832498 18.915735 22.274795 
C 18.915735 25.717093 20.283374 29.018866 22.717446 31.452938 
C 25.151518 33.88701 28.453292 35.25465 31.895589 35.25465 
z
" style="fill:#00d4ff;fill-opacity:0.5;stroke:#000000;stroke-opacity:0.5;"/>
    <path clip-path="url(#p5951feff60)" d="M 42.569451 35.487961 
C 42.87106 35.487961 43.160357 35.368131 43.373627 35.154861 
C 43.586897 34.941591 43.706727 34.652294 43.706727 34.350685 
C 43.706727 34.049076 43.586897 33.75978 43.373627 33.54651 
C 43.160357 33.33324 42.87106 33.21341 42.569451 33.21341 
C 42.267842 33.21341 41.978546 33.33324 41.765276 33.54651 
C 41.552006 33.75978 41.432176 34.049076 41.432176 34.350685 
C 41.432176 34.652294 41.552006 34.941591 41.765276 35.154861 
C 41.978546 35.368131 42.267842 35.487961 42.569451 35.487961 
z
" style="fill:#ff5900;fill-opacity:0.5;stroke:#000000;stroke-opacity:0.5;"/>
    <path clip-path="url(#p5951feff60)" d="M 42.077556 62.462972 
C 44.331262 62.462972 46.492965 61.567566 48.086575 59.973955 
C 49.680186 58.380345 50.575592 56.218641 50.575592 53.964936 
C 50.575592 51.71123 49.680186 49.549527 48.086575 47.955917 
C 46.492965 46.362306 44.331262 45.466899 42.077556 45.466899 
C 39.82385 45.466899 37.662147 46.362306 36.068537 47.955917 
C 34.474926 49.549527 33.579519 51.71123 33.579519 53.964936 
C 33.579519 56.218641 34.474926 58.380345 36.068537 59.973955 
C 37.662147 61.567566 39.82385 62.462972 42.077556 62.462972 
z
" style="fill:#0000ff;fill-opacity:0.5;stroke:#000000;stroke-opacity:0.5;"/>
    <path clip-path="url(#p5951feff60)" d="M 41.461037 52.269343 
C 44.513445 52.269343 47.441246 51.056608 49.599625 48.898229 
C 51.758004 46.73985 52.970739 43.812049 52.970739 40.759641 
C 52.970739 37.707232 51.758004 34.779431 49.599625 32.621053 
C 47.441246 30.462674 44.513445 29.249939 41.461037 29.249939 
C 38.408628 29.249939 35.480827 30.462674 33.322448 32.621053 
C 31.16407 34.779431 29.951335 37.707232 29.951335 40.759641 
C 29.951335 43.812049 31.16407 46.73985 33.322448 48.898229 
C 35.480827 51.056608 38.408628 52.269343 41.461037 52.269343 
z
" style="fill:#000080;fill-opacity:0.5;stroke:#000000;stroke-opacity:0.5;"/>
    <path clip-path="url(#p5951feff60)" d="M 56.115075 43.596906 
C 58.399747 43.596906 60.591152 42.689196 62.206658 41.073689 
C 63.822165 39.458183 64.729874 37.266778 64.729874 34.982106 
C 64.729874 32.697435 63.822165 30.50603 62.206658 28.890523 
C 60.591152 27.275017 58.399747 26.367307 56.115075 26.367307 
C 53.830404 26.367307 51.638999 27.275017 50.023492 28.890523 
C 48.407986 30.50603 47.500276 32.697435 47.500276 34.982106 
C 47.500276 37.266778 48.407986 39.458183 50.023492 41.073689 
C 51.638999 42.689196 53.830404 43.596906 56.115075 43.596906 
z
" style="fill:#ff5500;fill-opacity:0.5;stroke:#000000;stroke-opacity:0.5;"/>
    <path clip-path="url(#p5951feff60)" d="M 56.177566 23.606658 
C 56.54595 23.606658 56.899295 23.460298 57.159781 23.199811 
C 57.420268 22.939325 57.566628 22.58598 57.566628 22.217596 
C 57.566628 21.849212 57.420268 21.495867 57.159781 21.235381 
C 56.899295 20.974894 56.54595 20.828534 56.177566 20.828534 
C 55.809182 20.828534 55.455837 20.974894 55.195351 21.235381 
C 54.934864 21.495867 54.788504 21.849212 54.788504 22.217596 
C 54.788504 22.58598 54.934864 22.939325 55.195351 23.199811 
C 55.455837 23.460298 55.809182 23.606658 56.177566 23.606658 
z
" style="fill:#00a8ff;fill-opacity:0.5;stroke:#000000;stroke-opacity:0.5;"/>
    <path clip-path="url(#p5951feff60)" d="M 18.017136 54.00439 
C 20.155661 54.00439 22.206886 53.154745 23.719051 51.642579 
C 25.231217 50.130414 26.080862 48.079189 26.080862 45.940664 
C 26.080862 43.802139 25.231217 41.750914 23.719051 40.238749 
C 22.206886 38.726583 20.155661 37.876938 18.017136 37.876938 
C 15.878611 37.876938 13.827386 38.726583 12.315221 40.238749 
C 10.803055 41.750914 9.95341 43.802139 9.95341 45.940664 
C 9.95341 48.079189 10.803055 50.130414 12.315221 51.642579 
C 13.827386 53.154745 15.878611 54.00439 18.017136 54.00439 
z
" style="fill:#800000;fill-opacity:0.5;stroke:#000000;stroke-opacity:0.5;"/>
    <path clip-path="url(#p5951feff60)" d="M 27.052219 36.92994 
C 28.492044 36.92994 29.873092 36.357891 30.891202 35.339781 
C 31.909312 34.321671 32.481361 32.940624 32.481361 31.500799 
C 32.481361 30.060974 31.909312 28.679927 30.891202 27.661816 
C 29.873092 26.643706 28.492044 26.071658 27.052219 26.071658 
C 25.612394 26.071658 24.231347 26.643706 23.213237 27.661816 
C 22.195127 28.679927 21.623078 30.060974 21.623078 31.500799 
C 21.623078 32.940624 22.195127 34.321671 23.213237 35.339781 
C 24.231347 36.357891 25.612394 36.92994 27.052219 36.92994 
z
" style="fill:#ff8200;fill-opacity:0.5;stroke:#000000;stroke-opacity:0.5;"/>
   </g>
  </g>
 </g>
 <defs>
  <clipPath id="p5951feff60">
   <rect height="57.6" width="55.8" x="9.0" y="7.2"/>
  </clipPath>
 </defs>
</svg>
